PathFileType	4	(X/Y/Z)	Patient4_TMGait_0pt4_02_right_21.trc.trc
DataRate	CameraRate	NumFrames	NumMarkers	Units	OrigDataRate	OrigDataStartFrame	OrigNumFrames
73.298429319372	73.298429319372	6	33	mm	73.298429319372	36	       141
Frame#	Time	Sacral			L.Shoulder			Chest			R.Shoulder			Neck			R.ASIS			L.ASIS			R.Thigh.Superior			R.Thigh.Lateral			R.Thigh.Inferior			R.Patella			L.Thigh.Superior			L.Thigh.Lateral			L.Thigh.Inferior			L.Patella			L.Shank.Superior			L.Shank.Lateral			L.Shank.Inferior			R.Shank.Superior			R.Shank.Lateral			R.Shank.Inferior			R.Heel			R.Midfoot.Superior			R.Midfoot.Lateral			R.Toe			L.Heel			L.Midfoot.Lateral			L.Midfoot.Superior			L.Toe			L.Elbow			L.Wrist			R.Elbow			R.Wrist			
		X1	Y1	Z1	X2	Y2	Z2	X3	Y3	Z3	X4	Y4	Z4	X5	Y5	Z5	X6	Y6	Z6	X7	Y7	Z7	X8	Y8	Z8	X9	Y9	Z9	X10	Y10	Z10	X11	Y11	Z11	X12	Y12	Z12	X13	Y13	Z13	X14	Y14	Z14	X15	Y15	Z15	X16	Y16	Z16	X17	Y17	Z17	X18	Y18	Z18	X19	Y19	Z19	X20	Y20	Z20	X21	Y21	Z21	X22	Y22	Z22	X23	Y23	Z23	X24	Y24	Z24	X25	Y25	Z25	X26	Y26	Z26	X27	Y27	Z27	X28	Y28	Z28	X29	Y29	Z29	X30	Y30	Z30	X31	Y31	Z31	X32	Y32	Z32	X33	Y33	Z33	

36	27.967500000000	899.987809027448	998.831410004379	470.715055705561	1070.474518784542	1432.731715377836	291.728292418363	1163.099357726635	1373.660133653223	461.786730483135	1061.217963160259	1442.584216610964	627.560203227176	1035.321884586031	1495.155428828594	446.011866112282	1129.373793071597	942.468005171868	595.713829574807	1121.445803704001	967.674232115124	321.962609800280	1190.322676030870	748.059137535990	558.660453667625	1122.164615061944	631.672965479378	620.439088252902	1203.033801028025	586.886175155293	537.929712543410	1213.845368309871	497.153856869474	544.411321147488	1142.811508691166	739.988363793322	338.770624002818	1039.986078433947	634.930529963941	273.788110032647	1116.797386864673	544.464357888099	329.422015051635	1105.967651007494	465.658573063958	327.667641649306	1050.707408357823	405.267694974281	321.866414722114	922.213617217436	332.133775376152	275.745879955043	938.824957879434	203.812820818857	334.693516423335	1185.506271715910	407.166672767818	552.274809990335	1118.530014858483	303.358700523987	619.189425284376	1157.239817650897	207.973031992266	554.919780715857	1025.400268155775	42.789047295298	535.750654835725	1197.593928587492	97.600431642734	559.877337304024	1113.146730297556	37.549715718394	605.161377084380	1320.156486893939	46.401780103900	581.130896195576	772.497603904834	86.504990300388	377.529576045318	840.993865975325	59.648914258974	298.344942002648	936.146054264661	104.055126632244	319.190043257727	1047.122395217863	36.361893313050	294.472452009013	1119.816400221830	1094.377063183476	150.231292032630	1338.004952179971	948.051359179909	158.596330794377	977.791508468150	1108.226803861215	750.192884919443	1046.180668670522	855.403575552510	752.675680160056	
37	27.981142857143	900.083558578861	999.119048621598	475.198073695752	1069.091535125113	1433.426515024017	295.626591740442	1163.358480205105	1373.980888998920	464.663458051107	1063.117015755459	1442.624229460275	631.488903333224	1035.312711828199	1495.511988488154	450.215781267361	1130.379062998873	942.710448284661	598.457233323001	1120.669107549297	968.303239488586	324.784305470430	1189.855990953817	747.397629078499	562.302358305818	1119.913087481897	631.341057680369	623.068490197405	1201.001539183791	586.250216558964	540.880589351582	1210.763257775754	496.561964826803	546.546429755044	1147.206884309877	741.978663650630	341.622753939737	1048.271071093213	634.471797865990	275.407820699681	1128.108242607046	545.414354308099	330.475308509840	1118.193394734241	465.161906942365	327.620881046291	1060.414973498246	405.054740742953	322.229435234096	929.307661862348	336.752988369670	276.262015734270	941.633701145444	207.899834058992	334.502864885396	1182.035701045747	406.650492976690	554.072905922186	1114.612014886606	302.910184018380	620.583578793490	1152.729330241758	207.644469560052	555.752152728131	1019.970787583216	42.822935367196	535.874640751838	1192.302148383519	97.479442459105	560.159391320021	1107.723376584453	37.504350694523	605.302366322499	1314.813029025197	46.006121637913	581.289940076915	770.928333612620	98.238610962113	377.004360965422	837.947458331360	67.390210620135	298.105273205323	935.068215898475	107.298521187093	318.496954173108	1041.641488918261	35.538880268286	294.610315473766	1114.867548247466	1093.785186462095	155.483079112456	1325.386536364065	935.980936857854	161.226019654075	987.392695930233	1106.278887555817	755.652216103984	1067.178382672265	856.922411679408	757.155713972455	
38	27.994785714286	899.965801619790	999.213349683217	479.666747940571	1067.472565304935	1433.898580085205	299.449668156542	1163.502224635639	1374.075376252805	467.388547098487	1065.077039643143	1442.460450658815	635.342648658879	1035.256573972492	1495.691239818063	454.376229119983	1131.217230064883	942.791764391352	601.036917279441	1119.621195909863	968.715401360340	327.436261789395	1189.154518319614	746.663983996336	565.639656601082	1117.750317191280	631.003015917647	625.677699793118	1198.840673960698	585.594755777088	543.643487144365	1207.638915227139	495.932018899601	548.678977153329	1151.730077052401	744.129892752689	344.272169845526	1057.007562934702	634.160712394691	276.754196882213	1139.909095635384	546.746568521709	331.313493793962	1131.083456131928	465.125041652403	327.539212653031	1070.937783992259	405.144293131125	322.528511295853	937.387910155112	341.767132812719	276.654858515213	945.246338414720	212.593938235697	334.399498962985	1178.504065138362	406.079112973180	555.907337967438	1110.616373778372	302.413805549302	622.014323375965	1148.161828531601	207.279577736919	556.614076777019	1014.428096381909	42.842714737050	536.023503509882	1186.941896113438	97.315849539310	560.421509670269	1102.215406288127	37.441684418218	605.443489156722	1309.383549609602	45.556307412024	581.373398844175	770.273385702700	111.120005407496	376.669941635023	835.597737971647	76.324836842851	297.975622967321	934.651249240591	111.333455904101	317.970501636922	1036.487056098687	34.756527420031	294.711544845821	1109.538225855383	1092.963454376604	160.719385619266	1311.534060307803	923.892238435320	163.799026661415	997.334259190410	1104.393273875038	761.200479209486	1088.868881451749	859.212208610827	761.452548454336	
39	28.008428571429	899.639658127884	999.142956717320	484.059157922241	1065.647670565310	1434.170198117177	303.165719987446	1163.524823760999	1373.960019752587	469.943953440794	1067.064069499470	1442.100437528601	639.089086596318	1035.162718123595	1495.717140475329	458.461160964528	1131.872313974009	942.736974985420	603.431826597014	1118.274740885070	968.872989813386	329.915171468367	1188.228813106068	745.913830080017	568.575727177545	1115.759310519061	630.687715923845	628.242118675833	1196.588742080140	584.944257737547	546.162292428921	1204.514664194541	495.282515390951	550.791466743125	1156.218716080874	746.462552169794	346.663463650416	1065.941532814146	634.109797425187	277.825925671935	1151.886004769036	548.557687730392	331.910388987595	1144.344882537740	465.666017486883	327.389032784282	1082.044135643104	405.638464336767	322.735451590652	946.248623442009	347.119495430608	276.965346736270	949.644168084071	217.813909346721	334.408383734943	1174.956585762336	405.474253323914	557.751026371740	1106.592163382440	301.895494194824	623.476473086920	1143.578621000904	206.899667859087	557.504730173998	1008.819740874985	42.854186904436	536.206076939281	1181.548601144194	97.137111065736	560.679219164399	1096.665221340155	37.371893385417	605.598293372927	1303.904858743933	45.095276438614	581.409889514127	770.681882960664	124.711154419711	376.615976724435	834.149903742666	86.193646870900	298.006254472009	935.024272968296	116.116043588497	317.638684255074	1031.984382317751	34.093493071815	294.711101746074	1103.770629785536	1091.923433619988	165.933355463772	1296.446597416416	911.965121948576	166.324278675299	1007.638343890956	1102.575840863997	766.761287380573	1111.118378886237	862.316475816465	765.469356991109	
40	28.022071428571	899.116922566455	998.962532805751	488.321340056124	1063.657272931910	1434.288412878567	306.746157839460	1163.424389817147	1373.677945422077	472.318363836225	1069.038889796034	1441.580615363446	642.696882847538	1035.039622884318	1495.634698874552	462.437524764167	1132.335674627828	942.589383241466	605.631637793651	1116.616900858405	968.772910996667	332.227646769142	1187.100426469341	745.198164668569	571.083884071134	1113.946635640404	630.413009649590	630.727627208882	1194.266387916482	584.320797429920	548.418366314787	1201.400553236448	494.635079811347	552.855929752969	1160.514247585610	749.006287573479	348.765371460734	1074.802380916866	634.424927193355	278.638294330634	1163.726930689612	550.930402422462	332.240113336689	1157.676217565367	466.883329396819	327.112168434133	1093.490455659806	406.627327897544	322.806455288195	955.663857324214	352.709346291748	277.232470556491	954.832923169826	223.412986073287	334.531607289174	1171.411270998452	404.863714718121	559.567059349202	1102.559068820489	301.385138215755	624.950075821626	1139.001531239915	206.528624544927	558.414317136439	1003.186891568199	42.862889342277	536.421923374987	1176.149639763545	96.967005985796	560.942232543378	1091.105782966886	37.303459149913	605.772966228137	1298.405326119638	44.660819404102	581.424387337744	772.320183195816	138.419193095127	376.911420614628	833.850674791583	96.584581401570	298.230049138241	936.367797830369	121.503947771798	317.497327789112	1028.554230791000	33.651702036100	294.530534671439	1097.499179342493	1090.706475287858	171.123485876168	1280.138397864709	900.387185915919	168.818804315597	1018.320840393866	1100.857531170582	772.245216775746	1133.789100548486	866.283347801057	769.117793968604	
41	28.035714285714	898.417659561883	998.743458075739	492.412007607770	1061.547654494582	1434.318548831261	310.169442730074	1163.204261518228	1373.292847085620	474.508491689454	1070.963139935094	1440.960991439129	646.139371380266	1034.894157551767	1495.502994617793	466.275004054015	1132.607632079103	942.402484342709	607.635239865011	1114.664717125676	968.458423967462	334.383100779719	1185.795250265492	744.554642823653	573.197300072986	1112.251023310078	630.187830410798	633.094002667982	1191.872467456300	583.741319461347	550.423226338917	1198.272229294370	494.011642182659	554.836922893791	1164.479611194328	751.792986054764	350.572111569014	1083.328678025100	635.190742771108	279.220610102814	1175.146163339297	553.920078164860	332.280596485582	1170.787641275518	468.844978518570	326.640124750620	1105.042975631655	408.175415777303	322.691157821713	965.416576727508	358.384618611814	277.483765265165	960.854019540769	229.177194030399	334.743173792262	1167.856489769031	404.277795579206	561.313841340561	1098.507098218664	300.912316581990	626.403876102636	1134.431194124359	206.189311800924	559.325618734340	997.560334011185	42.872922834158	536.663409329262	1170.761977979232	96.823277247941	561.214116739076	1085.558045539967	37.242472887067	605.967201703239	1292.903105520484	44.282096921234	581.436096115337	775.371063260665	151.531494607137	377.584819307299	834.983232776946	106.952981656357	298.648651481390	938.914491918657	127.253884928845	317.504528020213	1026.698139337255	33.541516273519	294.082437327865	1090.659493380616	1089.382375440506	176.289296842902	1262.643863712725	889.347475074972	171.308193104095	1029.382549247657	1099.294129275772	777.557284358220	1156.738168120603	871.165397664245	772.320795797939	
